{
	"asset":{
		"generator":"Khronos glTF Blender I/O v5.2.40",
		"version":"2.0"
	},
	"scene":0,
	"scenes":[
		{
			"name":"Scene",
			"nodes":[
				0
			]
		},
		{
			"name":"Scene.001"
		}
	],
	"nodes":[
		{
			"mesh":0,
			"name":"Cube.002",
			"rotation":[
				0,
				-0.3420201539993286,
				0,
				0.9396926760673523
			],
			"translation":[
				0,
				0,
				200
			]
		}
	],
	"materials":[
		{
			"doubleSided":true,
			"name":"Gradient Tilesheet Rough",
			"pbrMetallicRoughness":{
				"baseColorTexture":{
					"index":0
				},
				"metallicFactor":0
			}
		}
	],
	"meshes":[
		{
			"name":"Cube.006",
			"primitives":[
				{
					"attributes":{
						"POSITION":0,
						"NORMAL":1,
						"TEXCOORD_0":2
					},
					"indices":3,
					"material":0
				}
			]
		}
	],
	"textures":[
		{
			"sampler":0,
			"source":0
		}
	],
	"images":[
		{
			"mimeType":"image/png",
			"name":"T_BaselinePalette",
			"uri":"Map%20Textures/T_BaselinePalette.png"
		}
	],
	"accessors":[
		{
			"bufferView":0,
			"componentType":5126,
			"count":6516,
			"max":[
				76.16999053955078,
				61.99018478393555,
				77.64100646972656
			],
			"min":[
				-339.5373229980469,
				-53.12092971801758,
				-329.7773742675781
			],
			"type":"VEC3"
		},
		{
			"bufferView":1,
			"componentType":5126,
			"count":6516,
			"type":"VEC3"
		},
		{
			"bufferView":2,
			"componentType":5126,
			"count":6516,
			"type":"VEC2"
		},
		{
			"bufferView":3,
			"componentType":5123,
			"count":34560,
			"type":"SCALAR"
		}
	],
	"bufferViews":[
		{
			"buffer":0,
			"byteLength":78192,
			"byteOffset":0,
			"target":34962
		},
		{
			"buffer":0,
			"byteLength":78192,
			"byteOffset":78192,
			"target":34962
		},
		{
			"buffer":0,
			"byteLength":52128,
			"byteOffset":156384,
			"target":34962
		},
		{
			"buffer":0,
			"byteLength":69120,
			"byteOffset":208512,
			"target":34963
		}
	],
	"samplers":[
		{
			"magFilter":9729,
			"minFilter":9987
		}
	],
	"buffers":[
		{
			"byteLength":277632,
			"uri":"Mountains.bin"
		}
	]
}
